<svg xmlns="http://www.w3.org/2000/svg" width="1400" height="400"><rect width="1400" height="400" fill="#fff"/><text x="700" y="40" fill="#1e293b" font-family="sans-serif" font-size="24" font-weight="bold" text-anchor="middle">Content Engine Pipeline</text><defs><marker id="arrow" markerHeight="10" markerWidth="10" orient="auto" refX="9" refY="3"><polygon fill="#94a3b8" points="0 0 10 3 0 6"/></marker></defs><rect width="140" height="140" x="50" y="120" fill="#ff8a1f" stroke="#ff8a1f" stroke-width="2" opacity=".15" rx="12"/><text x="120" y="165" fill="#1e293b" font-family="sans-serif" font-size="16" font-weight="bold" text-anchor="middle">Research</text><text x="120" y="195" fill="#64748b" font-family="sans-serif" font-size="13" text-anchor="middle">Keywords</text><text x="120" y="215" fill="#64748b" font-family="sans-serif" font-size="13" text-anchor="middle">Clusters</text><line x1="190" x2="220" y1="190" y2="190" stroke="#94a3b8" stroke-width="2" marker-end="url(#arrow)"/><rect width="140" height="140" x="220" y="120" fill="#ff8a1f" stroke="#ff8a1f" stroke-width="2" opacity=".15" rx="12"/><text x="290" y="165" fill="#1e293b" font-family="sans-serif" font-size="16" font-weight="bold" text-anchor="middle">Generate</text><text x="290" y="195" fill="#64748b" font-family="sans-serif" font-size="13" text-anchor="middle">Generate</text><text x="290" y="215" fill="#64748b" font-family="sans-serif" font-size="13" text-anchor="middle">wizard</text><line x1="360" x2="390" y1="190" y2="190" stroke="#94a3b8" stroke-width="2" marker-end="url(#arrow)"/><rect width="140" height="140" x="390" y="120" fill="#ff6b3d" stroke="#ff6b3d" stroke-width="2" opacity=".15" rx="12"/><text x="460" y="165" fill="#1e293b" font-family="sans-serif" font-size="16" font-weight="bold" text-anchor="middle">Publish</text><text x="460" y="195" fill="#64748b" font-family="sans-serif" font-size="13" text-anchor="middle">Articles</text><text x="460" y="215" fill="#64748b" font-family="sans-serif" font-size="13" text-anchor="middle">+ CMS</text><line x1="530" x2="560" y1="190" y2="190" stroke="#94a3b8" stroke-width="2" marker-end="url(#arrow)"/><rect width="140" height="140" x="560" y="120" fill="#ff6b3d" stroke="#ff6b3d" stroke-width="2" opacity=".15" rx="12"/><text x="630" y="165" fill="#1e293b" font-family="sans-serif" font-size="16" font-weight="bold" text-anchor="middle">Distribute</text><text x="630" y="195" fill="#64748b" font-family="sans-serif" font-size="13" text-anchor="middle">Distribution</text><text x="630" y="215" fill="#64748b" font-family="sans-serif" font-size="13" text-anchor="middle">(31 platforms)</text><line x1="700" x2="730" y1="190" y2="190" stroke="#94a3b8" stroke-width="2" marker-end="url(#arrow)"/><rect width="140" height="140" x="730" y="120" fill="#ff3d39" stroke="#ff3d39" stroke-width="2" opacity=".15" rx="12"/><text x="800" y="165" fill="#1e293b" font-family="sans-serif" font-size="16" font-weight="bold" text-anchor="middle">Link</text><text x="800" y="195" fill="#64748b" font-family="sans-serif" font-size="13" text-anchor="middle">Internal</text><text x="800" y="215" fill="#64748b" font-family="sans-serif" font-size="13" text-anchor="middle">Links</text><line x1="870" x2="900" y1="190" y2="190" stroke="#94a3b8" stroke-width="2" marker-end="url(#arrow)"/><rect width="140" height="140" x="900" y="120" fill="#ff3d39" stroke="#ff3d39" stroke-width="2" opacity=".15" rx="12"/><text x="970" y="165" fill="#1e293b" font-family="sans-serif" font-size="16" font-weight="bold" text-anchor="middle">Optimize</text><text x="970" y="195" fill="#64748b" font-family="sans-serif" font-size="13" text-anchor="middle">Optimization</text><text x="970" y="215" fill="#64748b" font-family="sans-serif" font-size="13" text-anchor="middle">AEO/GEO</text><line x1="1040" x2="1070" y1="190" y2="190" stroke="#94a3b8" stroke-width="2" marker-end="url(#arrow)"/><rect width="140" height="140" x="1070" y="120" fill="#6366f1" stroke="#6366f1" stroke-width="2" opacity=".15" rx="12"/><text x="1140" y="165" fill="#1e293b" font-family="sans-serif" font-size="16" font-weight="bold" text-anchor="middle">Track</text><text x="1140" y="195" fill="#64748b" font-family="sans-serif" font-size="13" text-anchor="middle">Rank</text><text x="1140" y="215" fill="#64748b" font-family="sans-serif" font-size="13" text-anchor="middle">Tracking</text><line x1="1210" x2="1240" y1="190" y2="190" stroke="#94a3b8" stroke-width="2" marker-end="url(#arrow)"/><rect width="140" height="140" x="1240" y="120" fill="#6366f1" stroke="#6366f1" stroke-width="2" opacity=".15" rx="12"/><text x="1310" y="165" fill="#1e293b" font-family="sans-serif" font-size="16" font-weight="bold" text-anchor="middle">Newsletter</text><text x="1310" y="195" fill="#64748b" font-family="sans-serif" font-size="13" text-anchor="middle">Newsletter</text></svg>