<svg xmlns="http://www.w3.org/2000/svg" width="1000" height="900"><rect width="1000" height="900" fill="#fff"/><text x="500" y="40" fill="#1e293b" font-family="sans-serif" font-size="24" font-weight="bold" text-anchor="middle">Agentic Distribution Loop</text><defs><marker id="arrowhead" markerHeight="10" markerWidth="10" orient="auto" refX="9" refY="3"><polygon fill="#64748b" points="0 0 10 3 0 6"/></marker></defs><rect width="700" height="80" x="150" y="80" fill="#ff8a1f" stroke="#ff8a1f" stroke-width="2" opacity=".15" rx="12"/><text x="500" y="126" fill="#1e293b" font-family="sans-serif" font-size="18" font-weight="600" text-anchor="middle">Keywords &amp; clusters</text><line x1="500" x2="500" y1="160" y2="180" stroke="#64748b" stroke-width="2" marker-end="url(#arrowhead)"/><rect width="700" height="80" x="150" y="180" fill="#ff8a1f" stroke="#ff8a1f" stroke-width="2" opacity=".15" rx="12"/><text x="500" y="226" fill="#1e293b" font-family="sans-serif" font-size="18" font-weight="600" text-anchor="middle">SEO article draft</text><line x1="500" x2="500" y1="260" y2="280" stroke="#64748b" stroke-width="2" marker-end="url(#arrowhead)"/><rect width="700" height="80" x="150" y="280" fill="#ff6b3d" stroke="#ff6b3d" stroke-width="2" opacity=".15" rx="12"/><text x="500" y="326" fill="#1e293b" font-family="sans-serif" font-size="18" font-weight="600" text-anchor="middle">Quality scoring (SEO/AEO/GEO/E-E-A-T)</text><line x1="500" x2="500" y1="360" y2="380" stroke="#64748b" stroke-width="2" marker-end="url(#arrowhead)"/><rect width="700" height="80" x="150" y="380" fill="#ff6b3d" stroke="#ff6b3d" stroke-width="2" opacity=".15" rx="12"/><text x="500" y="426" fill="#1e293b" font-family="sans-serif" font-size="18" font-weight="600" text-anchor="middle">Internal links + schema (JSON-LD)</text><line x1="500" x2="500" y1="460" y2="480" stroke="#64748b" stroke-width="2" marker-end="url(#arrowhead)"/><rect width="700" height="80" x="150" y="480" fill="#ff3d39" stroke="#ff3d39" stroke-width="2" opacity=".15" rx="12"/><text x="500" y="526" fill="#1e293b" font-family="sans-serif" font-size="18" font-weight="600" text-anchor="middle">Platform-adapted copies (agents)</text><line x1="500" x2="500" y1="560" y2="580" stroke="#64748b" stroke-width="2" marker-end="url(#arrowhead)"/><rect width="700" height="80" x="150" y="580" fill="#ff3d39" stroke="#ff3d39" stroke-width="2" opacity=".15" rx="12"/><text x="500" y="626" fill="#1e293b" font-family="sans-serif" font-size="18" font-weight="600" text-anchor="middle">31 distribution targets (tiered)</text><line x1="500" x2="500" y1="660" y2="680" stroke="#64748b" stroke-width="2" marker-end="url(#arrowhead)"/><rect width="700" height="80" x="150" y="680" fill="#ff3d39" stroke="#ff3d39" stroke-width="2" opacity=".15" rx="12"/><text x="500" y="726" fill="#1e293b" font-family="sans-serif" font-size="18" font-weight="600" text-anchor="middle">Newsletter campaign</text><line x1="500" x2="500" y1="760" y2="780" stroke="#64748b" stroke-width="2" marker-end="url(#arrowhead)"/><rect width="700" height="80" x="150" y="780" fill="#6366f1" stroke="#6366f1" stroke-width="2" opacity=".15" rx="12"/><text x="500" y="826" fill="#1e293b" font-family="sans-serif" font-size="18" font-weight="600" text-anchor="middle">LinkedIn schedule + publish (live)</text><text x="500" y="870" fill="#64748b" font-family="sans-serif" font-size="14" text-anchor="middle">Agent-assisted with human approval gates</text></svg>